<?xml version="1.0" encoding="UTF-8" standalone="no"?>
<!-- Created with Inkscape (http://www.inkscape.org/) -->

<svg
   xmlns:dc="http://purl.org/dc/elements/1.1/"
   xmlns:cc="http://creativecommons.org/ns#"
   xmlns:rdf="http://www.w3.org/1999/02/22-rdf-syntax-ns#"
   xmlns:svg="http://www.w3.org/2000/svg"
   xmlns="http://www.w3.org/2000/svg"
   xmlns:sodipodi="http://sodipodi.sourceforge.net/DTD/sodipodi-0.dtd"
   xmlns:inkscape="http://www.inkscape.org/namespaces/inkscape"
   width="32px"
   height="32px"
   id="svg3005"
   version="1.1"
   inkscape:version="0.48.2 r9819"
   sodipodi:docname="bluekey.svg">
  <defs
     id="defs3007" />
  <sodipodi:namedview
     id="base"
     pagecolor="#ffffff"
     bordercolor="#666666"
     borderopacity="1.0"
     inkscape:pageopacity="0.0"
     inkscape:pageshadow="2"
     inkscape:zoom="11.870968"
     inkscape:cx="10.959239"
     inkscape:cy="16.75"
     inkscape:current-layer="layer1"
     showgrid="true"
     inkscape:grid-bbox="true"
     inkscape:document-units="px"
     inkscape:window-width="1024"
     inkscape:window-height="746"
     inkscape:window-x="-8"
     inkscape:window-y="424"
     inkscape:window-maximized="0" />
  <metadata
     id="metadata3010">
    <rdf:RDF>
      <cc:Work
         rdf:about="">
        <dc:format>image/svg+xml</dc:format>
        <dc:type
           rdf:resource="http://purl.org/dc/dcmitype/StillImage" />
        <dc:title></dc:title>
      </cc:Work>
    </rdf:RDF>
  </metadata>
  <g
     id="layer1"
     inkscape:label="Layer 1"
     inkscape:groupmode="layer">
    <path
       sodipodi:type="arc"
       style="fill:#00ff00;fill-opacity:0.62433863;stroke:#d0eb1b;stroke-width:0.23896029999999999;stroke-miterlimit:4;stroke-opacity:1;stroke-dasharray:none"
       id="path4353"
       sodipodi:cx="15.668478"
       sodipodi:cy="17.258152"
       sodipodi:rx="10.866848"
       sodipodi:ry="21.733696"
       d="m 26.535326,17.258152 a 10.866848,21.733696 0 1 1 -21.733696,0 10.866848,21.733696 0 1 1 21.733696,0 z"
       transform="matrix(0.74433053,0,0,0.71545547,4.3374735,3.6525607)" />
    <path
       inkscape:connector-curvature="0"
       style="fill:#fea700;fill-opacity:1;stroke:#000000;stroke-width:0.05099045;stroke-miterlimit:4;stroke-opacity:1;stroke-dasharray:none"
       d="m 15.254695,2.6150076 c -1.563499,0 -2.868158,1.1020352 -3.182125,2.5718321 -1.058855,0.4601257 -1.800601,1.5144988 -1.800601,2.7423292 0,1.6511213 1.339789,2.9893131 2.990909,2.9893131 0.349301,0 0.684301,-0.06047 0.995908,-0.170497 l 0,18.637007 2.060332,0 2.522435,0 0,-0.509908 -2.039619,0 0,-0.509893 2.039619,0 0,-1.019818 -2.522435,0 0,-0.509893 5.071957,0 0,-1.019817 -5.071957,0 0,-14.755366 c 0.330843,0.122677 0.689326,0.191217 1.062834,0.191217 1.687813,0 3.054647,-1.3684253 3.054647,-3.056239 0,-1.3052356 -0.818355,-2.4190001 -1.969505,-2.8570599 C 18.21346,3.7930233 16.871666,2.6150076 15.254695,2.6150076 z m -1.293883,3.0387011 c 0.01872,-0.00101 0.03682,0 0.05577,0 0.423515,0 0.78875,0.2271186 0.972004,0.5561303 0.129404,-0.025802 0.26396,-0.043056 0.401551,-0.043056 0.137588,0 0.27215,0.017254 0.401549,0.043056 0.183258,-0.3290117 0.546901,-0.5561303 0.970416,-0.5561303 0.606566,0 1.099479,0.4594768 1.099479,1.0277798 0,0.3969036 -0.23988,0.7413964 -0.591171,0.9130492 0.02748,0.1212523 0.04143,0.2455597 0.04143,0.3744734 0,0.9945384 -0.86021,1.8005974 -1.921702,1.8005974 -1.061493,0 -1.921704,-0.806059 -1.921704,-1.8005974 0,-0.1288503 0.01234,-0.2532369 0.03984,-0.3744734 -0.35129,-0.1716528 -0.589576,-0.5161456 -0.589576,-0.9130492 0,-0.5505427 0.461816,-1.0002052 1.042119,-1.0277798 z"
       id="path3023" />
  </g>
</svg>
